<svg width="1007" height="787" viewBox="0 0 1007 787" fill="none" xmlns="http://www.w3.org/2000/svg">
<g id="frisbee-guy">
<path id="buble" d="M896.406 392.212C906.841 413.647 900.2 444.399 914.977 461.919C925.813 474.768 943.8 474.695 956.086 485.535C965.645 493.995 970.407 507.838 974.739 520.978L995.791 584.854C1005.38 613.946 1013.57 651.396 994.259 672.721C982.684 685.497 965.198 686.947 949.391 685.588C834.984 675.742 742.96 560.308 628.944 545.406C548.358 534.866 468.739 576.331 387.687 574.041C344.818 572.827 302.96 559.441 261.596 546.081C229.781 535.834 194.472 522.356 179.304 487.808C172.527 472.368 170.42 453.716 160.35 441.023C152.633 431.286 141.478 426.678 131.892 419.624C90.1346 388.863 85.3459 320.059 88.9853 262.123C91.0011 229.984 94.4124 197.078 107.118 168.553C119.824 140.027 143.731 116.438 171.022 115.508C188.279 114.915 204.77 123.145 221.562 127.745C238.355 132.344 258.047 132.481 270.653 118.619C280.996 107.24 284.244 88.9624 294.587 77.5559C302.641 68.6953 313.878 65.2551 324.742 63.1471C383.163 51.8136 445.398 71.4876 491.213 115.763C502.35 126.522 512.958 138.932 526.567 144.453C544.691 151.799 564.503 145.575 583.666 145.73C651.273 146.278 697.125 219.48 744.775 265.627C772.631 292.61 799.575 298.423 829.803 316.399C848.51 327.532 885.123 369.043 896.406 392.212Z" fill="url(#paint0_linear)"/>
<g id="Guy">
<path id="Vector" d="M597.45 329.25C597.45 329.25 547 358.64 557.78 341.98C562.442 334.963 564.882 326.704 564.78 318.28C564.778 315.53 564.408 312.792 563.68 310.14L584.74 300.34C584.375 303.225 584.634 306.154 585.5 308.93C588.45 319.35 597.45 329.25 597.45 329.25Z" fill="#DB8B8B"/>
<path id="Vector_2" d="M497.592 264.315L502.852 321.665C502.852 321.665 509.062 333.615 516.232 337.435C521.142 340.055 530.742 348.265 536.322 353.185C538.892 355.455 540.612 357.025 540.612 357.025L554.952 334.085C553.965 332.734 552.857 331.476 551.642 330.325C546.622 325.441 540.305 322.102 533.442 320.705C533.442 320.705 532.252 317.125 529.622 310.705C527.782 306.195 516.242 281.075 516.242 281.075C516.242 281.075 511.462 261.005 512.422 250.965C513.382 240.925 497.612 221.815 495.222 224.205C492.832 226.595 490.902 254.755 497.592 264.315Z" fill="#DB8B8B"/>
<path id="Vector_3" d="M662.1 327.78C662.1 327.78 646.92 341.98 625.86 344.92C625.86 344.92 619.6 346.34 615.1 354.61C613.46 357.718 612.297 361.056 611.65 364.51L589.05 326.22L587.65 323.85H625.36C628.255 320.374 631.839 317.536 635.885 315.514C639.931 313.492 644.352 312.329 648.87 312.1L654.75 308.18C654.75 308.18 648.87 262.63 640.06 260.18C640.06 260.18 635.76 255.88 630.87 251.7C627.868 249.18 625.915 245.629 625.396 241.745C624.876 237.86 625.826 233.921 628.06 230.7C628.18 230.53 628.3 230.36 628.43 230.2C633.43 223.67 643.88 225.94 645.98 233.92C647.438 239.341 648.57 244.844 649.37 250.4L651.82 258.73L660.64 276.85L674.84 311.13C674.84 311.13 677.77 318.97 662.1 327.78Z" fill="#DB8B8B"/>
<path id="Vector_4" d="M613.32 373.57C605.972 387.106 602.187 402.289 602.32 417.69V419.61V419.86C602.32 419.86 607.71 434.55 602.32 434.55C596.93 434.55 597.42 441.9 590.57 443.37C583.72 444.84 559.71 455.12 552.37 450.72C545.03 446.32 540.13 437.01 540.13 437.01V357.17C540.23 357.05 540.33 356.92 540.42 356.78C544.65 350.78 546.99 325.78 546.99 325.78C548.388 325.995 549.797 326.132 551.21 326.19C555.42 326.39 560.21 326.19 562.63 326.07L564.13 325.98C568.36 329.29 574.13 329.77 576.99 329.77C577.994 329.774 578.996 329.847 579.99 329.99C588.26 331.15 590.78 320.16 590.78 320.16L594.05 320.9L602.9 322.9L605.97 323.59C600.46 339.2 614.97 355.89 616.8 357.91L616.99 358.12C617.146 363.503 615.88 368.832 613.32 373.57Z" fill="#B60505"/>
<path id="Vector_5" opacity="0.3" d="M551.22 326.23C551.22 332.72 549.67 354.23 540.15 357.34V357.17C540.25 357.05 540.35 356.92 540.44 356.78C544.67 350.78 547.01 325.78 547.01 325.78C548.404 326.008 549.809 326.158 551.22 326.23Z" fill="white"/>
<path id="Vector_6" opacity="0.3" d="M616.85 357.94C598.93 357.02 601.05 333.58 602.95 322.94L606.02 323.63C600.51 339.23 615.01 355.92 616.85 357.94Z" fill="white"/>
<g id="Group" opacity="0.1">
<path id="Vector_7" opacity="0.1" d="M617.04 358.64C617.035 358.589 617.013 358.542 616.979 358.504C616.945 358.466 616.9 358.44 616.85 358.43C612.85 357.43 617.29 358.88 612.85 357.43C612.68 357.37 613.09 356.7 613.09 356.7C613.225 362.077 611.942 367.396 609.37 372.12C602.022 385.656 598.237 400.839 598.37 416.24V418.16V418.4C598.37 418.4 603.76 433.09 598.37 433.09C592.98 433.09 593.47 440.44 586.62 441.91C580.34 443.26 559.69 451.99 550.62 450.06C551.18 450.47 551.75 450.86 552.34 451.21C559.69 455.62 583.69 445.33 590.54 443.86C597.39 442.39 596.91 435.04 602.29 435.04C607.67 435.04 602.29 420.35 602.29 420.35V420.1V418.18C602.157 402.779 605.942 387.596 613.29 374.06C615.872 369.339 617.166 364.02 617.04 358.64V358.64Z" fill="black"/>
<path id="Vector_8" opacity="0.1" d="M565.32 327.02C565.09 326.86 564.85 326.69 564.63 326.52H564.11C564.51 326.72 564.92 326.87 565.32 327.02Z" fill="black"/>
</g>
<path id="Vector_9" d="M719.89 572.18L714.02 585.4C712.344 582.644 710.508 579.99 708.52 577.45V577.45C705.668 573.641 702.303 570.246 698.52 567.36C694.426 564.381 690.561 561.099 686.96 557.54C684.2 554.87 681.18 552.22 679.04 551.11C677.797 550.486 676.609 549.757 675.49 548.93C671.59 545.93 663.93 539.78 662.12 535.45C662.12 535.45 646.45 520.76 639.59 517.82L632.75 509.82L624.89 500.65L644.97 480.57L650.88 488.84L659.67 501.14C663.646 506.081 668.194 510.532 673.22 514.4C678.226 518.031 682.85 522.162 687.02 526.73C693.594 533.879 699.362 541.73 704.22 550.14L716.85 567.89L716.94 568.03L718.94 570.82L719.89 572.18Z" fill="#DB8B8B"/>
<path id="Vector_10" d="M595.49 573.65L587.65 592.26L581.29 585.4L578.67 579.9L576.39 575.11L565.12 568.25L554.12 561.07C552.22 559.832 550.148 558.882 547.97 558.25C538.46 555.47 540.1 550.13 540.1 550.13L540.97 536.27L541.57 526.62L567.57 523.68L566.27 531.03L564.63 540.33C574.43 541.8 580.79 557.96 580.79 557.96C584.66 563.77 588.33 566.18 590.38 567.14C590.914 567.409 591.478 567.614 592.06 567.75L595.49 573.65Z" fill="#DB8B8B"/>
<path id="Vector_11" opacity="0.1" d="M719.89 572.18L714.02 585.4C712.344 582.644 710.508 579.99 708.52 577.45C709.42 578.31 714.45 582.89 716.06 578.71C716.677 577.005 717.388 575.336 718.19 573.71C718.687 572.844 718.939 571.859 718.92 570.86L719.89 572.18Z" fill="black"/>
<path id="Vector_12" opacity="0.1" d="M719.41 571.31L717.41 568.52L717.32 568.38L704.69 550.63C699.821 542.225 694.043 534.381 687.46 527.24C683.29 522.672 678.666 518.541 673.66 514.91C668.634 511.042 664.086 506.591 660.11 501.65L651.35 489.4L645.44 481.13L644.58 481.99L649.87 489.4L658.66 501.7C662.642 506.627 667.193 511.065 672.22 514.92C677.226 518.551 681.85 522.682 686.02 527.25C692.592 534.39 698.36 542.23 703.22 550.63L715.87 568.4L715.96 568.54L717.96 571.33L718.96 572.69L713.7 584.53C714.25 585.4 714.56 585.91 714.56 585.91L720.44 572.69L719.41 571.31Z" fill="black"/>
<path id="Vector_13" opacity="0.1" d="M595.49 573.65L587.65 592.26L581.29 585.4L578.67 579.9L586.19 584.9C593.58 580.28 590.73 568.47 590.39 567.15C590.924 567.42 591.488 567.624 592.07 567.76L595.49 573.65Z" fill="black"/>
<path id="Vector_14" d="M590.84 567.53C590.84 567.53 594.51 580.53 586.68 585.41L576.39 578.55C576.39 578.55 574.39 583.45 580.8 589.82C583.184 591.957 585.044 594.615 586.234 597.588C587.423 600.561 587.912 603.768 587.66 606.96C587.66 606.96 588.66 618.71 594.52 615.78C594.52 615.78 603.83 613.78 603.34 597.66C603.34 597.66 599.63 584.21 603.95 578.52C604.07 578.367 604.193 578.217 604.32 578.07C609.22 572.68 602.85 564.36 602.85 564.36C602.85 564.36 591.33 559.7 590.84 567.53Z" fill="#2D2B2B"/>
<path id="Vector_15" opacity="0.1" d="M602.35 434.56C596.96 434.56 597.45 441.91 590.6 443.38C583.75 444.85 559.74 455.13 552.4 450.73C545.06 446.33 540.16 437.02 540.16 437.02V436.02C552.4 442.39 567.59 436.02 567.59 436.02C578.41 438.1 597.02 423.91 602.36 419.6V419.85C602.36 419.85 607.73 434.56 602.35 434.56Z" fill="black"/>
<path id="Vector_16" opacity="0.1" d="M541.61 526.63L567.61 523.69L566.31 531.04C558.26 534.78 546.67 535.93 541.05 536.28L541.61 526.63Z" fill="black"/>
<path id="Vector_17" opacity="0.1" d="M650.86 488.86C649.63 497.86 639.57 505.59 632.73 509.86L624.87 500.69L644.95 480.61L650.86 488.86Z" fill="black"/>
<path id="Vector_18" d="M567.57 437C567.57 437 552.39 443.37 540.14 437L537.69 470.31C537.69 470.31 538.18 485 536.22 493.31C534.26 501.62 537.69 535.43 537.69 535.43C537.69 535.43 568.06 534.94 573.93 523.68C573.93 523.68 586.66 498.21 584.22 489.4L610.67 495.28L626.35 512.4C626.35 512.4 653.29 499.67 650.84 483.99L614.59 441.4L603.82 419.4C603.82 419.4 580.31 439.45 567.57 437Z" fill="#2B2A37"/>
<path id="Vector_19" opacity="0.3" d="M594.1 320.93C583.19 340.64 567.1 329.73 562.64 326.11L564.14 326.02C568.37 329.33 574.14 329.81 577 329.81C578.004 329.814 579.006 329.887 580 330.03C588.27 331.19 590.79 320.2 590.79 320.2L594.1 320.93Z" fill="white"/>
<path id="Vector_20" d="M717.22 568.4C718.897 568.306 720.57 568.651 722.074 569.402C723.577 570.152 724.858 571.282 725.79 572.68C725.79 572.68 738.51 583.4 745.36 584.4C745.36 584.4 765.93 593.22 760.05 605.46C754.17 617.7 739.97 606.46 739.97 606.46C739.97 606.46 724.79 592.75 719.89 593.73C719.89 593.73 706.42 585.65 708.89 577.81C708.89 577.81 714.79 583.81 716.57 579.2C717.183 577.495 717.891 575.826 718.69 574.2C719.64 572.32 720.13 569.87 717.22 568.4Z" fill="#2D2B2B"/>
<path id="Vector_21" opacity="0.1" d="M564.35 437.12C559.23 438.61 548.93 440.6 540.15 436.03L539.99 438.22C550.64 442.09 562.42 437.87 564.35 437.12Z" fill="black"/>
<path id="Vector_22" opacity="0.1" d="M575.48 435.4C572.929 436.226 570.223 436.455 567.57 436.07C567.57 436.07 566.49 436.52 564.69 437.07C567.82 437.6 571.58 436.83 575.48 435.4Z" fill="black"/>
<path id="Vector_23" opacity="0.1" d="M650.98 485.5C650.51 500.03 626.35 511.45 626.35 511.45L626.01 511.08C632.7 507.41 649.88 496.68 647.9 484.02L611.65 441.4L601.71 421.07C603.04 420.01 603.81 419.36 603.81 419.36L614.59 441.36L650.83 483.97C650.913 484.476 650.964 484.987 650.98 485.5Z" fill="black"/>
<path id="Vector_24" opacity="0.1" d="M581.29 489.4C583.74 498.22 571 523.68 571 523.68C569.26 527.01 565.39 529.4 560.79 531.11C566.63 529.37 571.84 526.72 573.94 522.7C573.94 522.7 585.24 500.1 584.5 490.11L581.29 489.4Z" fill="black"/>
<path id="Vector_25" opacity="0.3" d="M572.96 362.31C566.06 362.31 560.47 370.31 560.47 380.19C560.47 390.07 566.06 398.07 572.96 398.07C579.86 398.07 585.45 390.07 585.45 380.19C585.45 370.31 579.86 362.31 572.96 362.31ZM572.96 390.72C568.9 390.72 565.6 386.01 565.6 380.19C565.6 374.37 568.89 369.66 572.96 369.66C577.03 369.66 580.32 374.37 580.32 380.19C580.32 386.01 577.02 390.72 572.96 390.72V390.72Z" fill="white"/>
<path id="Vector_26" d="M568.8 317.74C579.349 317.74 587.9 309.189 587.9 298.64C587.9 288.091 579.349 279.54 568.8 279.54C558.251 279.54 549.7 288.091 549.7 298.64C549.7 309.189 558.251 317.74 568.8 317.74Z" fill="#DB8B8B"/>
<path id="Vector_27" d="M557.479 287.232C553.774 285.864 550.396 283.752 547.56 281.028C544.724 278.303 542.49 275.027 541 271.405C543.072 270.629 545.245 272.522 547.45 272.375C550.118 272.197 551.633 269.272 553.916 267.937C556.89 266.153 560.798 267.162 563.803 268.915C566.809 270.668 569.5 273.019 572.82 274.058C575.66 274.951 578.713 274.772 581.695 274.943C585.477 275.152 593.277 275.82 596.11 278.675C597.679 280.226 596.973 281.778 595.545 283.081C595.929 285.261 595.152 287.27 595.403 289.846C595.772 292.074 595.466 294.36 594.524 296.417C593.449 299.311 591.935 301.584 590.468 304.307C589.495 306.123 590.052 308.504 588.898 310.219C588.28 311.02 587.472 311.657 586.544 312.073C581.012 314.997 574.572 315.764 568.496 314.222C566.456 313.694 564.353 312.794 563.262 311.01C561.449 308.039 563.262 304.253 563.074 300.785C562.87 295.89 558.687 291.871 557.479 287.232Z" fill="#472727"/>
</g>
<g id="disk">
<path id="Vector_28" d="M448.594 212.86C450.027 219.109 467.343 220.471 487.271 215.902C507.199 211.333 522.193 202.563 520.76 196.314C519.327 190.066 502.011 188.704 482.083 193.273C462.155 197.842 447.161 206.612 448.594 212.86Z" fill="#DBDBDC"/>
<path id="Vector_29" d="M448.944 214.386C450.377 220.635 467.693 221.996 487.621 217.427C507.549 212.858 522.543 204.089 521.11 197.84C519.677 191.591 502.361 190.229 482.433 194.799C462.505 199.368 447.511 208.137 448.944 214.386Z" fill="#DBDBDC"/>
<path id="Vector_30" opacity="0.5" d="M487.14 215.33C478.629 217.281 470.696 217.961 464.756 217.493C461.783 217.26 459.339 216.741 457.578 215.97C455.806 215.194 454.822 214.21 454.567 213.097C454.311 211.983 454.768 210.668 456.025 209.198C457.275 207.738 459.249 206.206 461.823 204.7C466.966 201.692 474.403 198.847 482.914 196.896C491.424 194.945 499.358 194.265 505.298 194.732C508.271 194.966 510.715 195.485 512.476 196.256C514.248 197.031 515.232 198.016 515.487 199.129C515.742 200.242 515.285 201.557 514.028 203.027C512.779 204.488 510.805 206.02 508.231 207.526C503.088 210.534 495.651 213.378 487.14 215.33Z" fill="#FCF9F9" stroke="#8F8B8B"/>
</g>
<ellipse id="Ellipse 1" cx="708.5" cy="716" rx="121.5" ry="20" fill="#C4C4C4" fill-opacity="0.6"/>
</g>
<defs>
<linearGradient id="paint0_linear" x1="135.431" y1="101.51" x2="936.933" y2="610.836" gradientUnits="userSpaceOnUse">
<stop stop-color="#FF9900"/>
<stop offset="0.0001" stop-color="#FF8A00"/>
<stop offset="1" stop-color="#FAFF00"/>
</linearGradient>
</defs>
</svg>
