<svg width="745" height="496" viewBox="0 0 745 496" fill="none" xmlns="http://www.w3.org/2000/svg">
<g id="svg">
<path id="Vector" d="M434.251 98.9249C390.422 97.3664 348.679 83.211 308.846 67.7546C269.013 52.2983 229.505 35.1004 186.726 26.8945C159.211 21.6159 127.741 20.8705 105.576 35.6289C84.2376 49.8588 77.3436 74.3546 73.6393 97.1089C70.8492 114.225 69.2104 132.236 76.8493 148.262C82.1585 159.388 91.5717 168.739 98.0864 179.398C120.752 216.477 104.73 262.203 80.1743 298.408C68.6618 315.396 55.287 331.611 46.3953 349.676C37.5036 367.741 33.393 388.469 41.1741 406.914C48.8807 425.21 67.2533 438.925 87.1563 448.581C127.579 468.191 175.193 473.808 221.656 476.986C324.476 484.027 427.838 480.977 530.929 477.928C569.083 476.796 607.399 475.651 644.929 469.749C665.774 466.47 687.289 461.266 702.424 448.709C721.63 432.765 726.391 405.762 713.517 385.773C691.928 352.237 632.252 343.91 617.144 307.915C608.841 288.108 617.367 266.038 629.442 247.668C655.338 208.258 698.74 173.679 701.022 128.625C702.593 97.6848 681.729 66.6976 649.467 52.0543C615.654 36.7064 568.757 38.6376 543.823 64.0413C518.102 90.1701 472.953 100.233 434.251 98.9249Z" fill="url(#paint0_linear)"/>
<g id="Guy">
<path id="Vector_2" d="M423.671 177.353C423.671 177.353 417.386 131.26 406.91 143.831C396.434 156.401 406.91 175.258 406.91 175.258L415.291 185.734L423.671 179.448V177.353Z" fill="#FFB8B8"/>
<path id="Vector_3" d="M448.813 192.019C448.813 192.019 427.862 168.972 423.672 173.163C419.481 177.353 406.91 179.448 409.005 187.829C411.101 196.21 455.099 223.447 455.099 223.447L448.813 192.019Z" fill="#6C63FF"/>
<path id="Vector_4" opacity="0.1" d="M448.813 192.019C448.813 192.019 427.862 168.972 423.672 173.163C419.481 177.353 406.91 179.448 409.005 187.829C411.101 196.21 455.099 223.447 455.099 223.447L448.813 192.019Z" fill="black"/>
<path id="Vector_5" d="M568.237 189.924V206.685C568.237 206.685 570.332 244.398 557.761 242.303C545.19 240.208 551.476 208.78 551.476 208.78L553.571 189.924H568.237Z" fill="#FFB8B8"/>
<path id="Vector_6" d="M561.952 311.443C561.952 311.443 580.808 340.775 587.094 342.871C593.379 344.966 626.902 363.822 631.092 382.679L660.424 420.391L645.758 439.248C645.758 439.248 578.713 368.013 559.857 361.727C541 355.442 522.144 324.014 522.144 324.014L561.952 311.443Z" fill="#FFB8B8"/>
<path id="Vector_7" d="M413.196 263.255C413.196 263.255 373.388 269.54 379.673 294.682C385.959 319.824 446.718 372.203 446.718 372.203L448.813 384.774L471.86 388.964L482.336 378.488L480.241 372.203C480.241 372.203 455.099 349.156 453.004 340.775C450.908 332.395 427.862 298.872 417.386 296.777L432.052 288.397L413.196 263.255Z" fill="#FFB8B8"/>
<path id="Vector_8" d="M654.139 420.391C654.139 420.391 645.758 407.82 658.329 409.916C670.9 412.011 679.281 414.106 679.281 422.487C679.281 430.867 668.805 489.532 656.234 485.341C643.663 481.151 654.139 462.295 654.139 462.295C654.139 462.295 647.853 445.533 643.663 443.438C639.473 441.343 639.473 430.867 643.663 430.867C647.853 430.867 656.234 424.582 654.139 420.391Z" fill="#2F2E41"/>
<path id="Vector_9" d="M476.05 374.298C476.05 374.298 476.05 363.822 484.431 374.298C492.812 384.774 497.002 393.154 488.621 399.44C480.241 405.725 450.908 420.392 450.908 420.392C450.908 420.392 419.481 426.677 423.671 412.011C423.671 412.011 444.623 401.535 444.623 393.154C444.623 384.774 444.623 370.108 450.908 374.298C457.194 378.488 476.05 380.584 476.05 374.298Z" fill="#2F2E41"/>
<path id="Vector_10" d="M515.858 217.161C515.858 217.161 545.191 221.351 543.095 263.255C543.095 263.255 580.808 300.967 570.332 313.538C559.857 326.109 536.81 349.156 528.429 342.871C520.049 336.585 494.907 288.396 494.907 288.396C494.907 288.396 436.242 309.348 425.767 298.872C415.291 288.397 404.815 263.255 404.815 263.255L457.194 236.018L515.858 217.161Z" fill="#2F2E41"/>
<path id="Vector_11" d="M434.147 97.737C420.262 97.737 409.005 86.4806 409.005 72.5951C409.005 58.7096 420.262 47.4532 434.147 47.4532C448.033 47.4532 459.289 58.7096 459.289 72.5951C459.289 86.4806 448.033 97.737 434.147 97.737Z" fill="#FFB8B8"/>
<path id="Vector_12" d="M453.004 74.6903C453.004 74.6903 467.67 97.7371 471.86 99.8322C476.05 101.927 442.528 122.879 442.528 122.879C442.528 122.879 442.528 95.6419 432.052 89.3564L453.004 74.6903Z" fill="#FFB8B8"/>
<path id="Vector_13" d="M455.099 97.737C455.099 97.737 488.621 87.2613 494.907 104.023C501.192 120.784 515.858 152.211 513.763 173.163C511.668 194.114 507.478 189.924 513.763 196.21C520.049 202.495 524.239 198.305 522.144 206.685C520.049 215.066 517.954 215.066 520.049 219.256C522.144 223.447 494.907 238.113 471.86 240.208L448.813 242.303C448.813 242.303 448.813 204.59 444.623 196.21C440.433 187.829 432.052 171.068 432.052 164.782V148.151C432.052 137.082 434.941 126.204 440.433 116.593C440.433 116.593 453.004 97.737 455.099 97.737Z" fill="#6C63FF"/>
<path id="Vector_14" d="M480.241 106.118C480.241 106.118 557.762 112.403 566.142 133.355C574.523 154.306 578.713 196.21 570.332 196.21C561.952 196.21 551.476 200.4 549.381 196.21C547.286 192.019 538.905 150.116 536.81 150.116C534.715 150.116 471.86 143.831 471.86 143.831C471.86 143.831 444.623 110.308 480.241 106.118Z" fill="#6C63FF"/>
<path id="Vector_15" d="M433.137 66.3621C433.137 66.3621 426.465 54.7675 418.125 64.8385C409.785 74.9094 396.218 56.4023 398.301 52.4532C400.384 48.5042 407.739 52.6308 420.343 48.5104C432.948 44.39 457.228 35.9959 461.294 63.3777C465.361 90.7594 455.676 87.8889 455.676 87.8889C455.676 87.8889 451.237 63.6257 447.225 70.5951L443.212 77.5645L439.732 78.4211L433.137 66.3621Z" fill="#2F2E41"/>
</g>
<g id="disk">
<path id="Vector_16" d="M135.226 106.94C133.601 115.704 152.69 126.591 177.862 131.257C203.034 135.924 224.756 132.603 226.381 123.84C228.006 115.077 208.917 104.19 183.745 99.5229C158.573 94.8563 136.851 98.1772 135.226 106.94Z" fill="#DBDBDC"/>
<path id="Vector_17" d="M134.83 109.08C133.205 117.843 152.294 128.73 177.466 133.397C202.638 138.064 224.36 134.743 225.985 125.979C227.61 117.216 208.521 106.329 183.349 101.662C158.177 96.9958 136.454 100.317 134.83 109.08Z" fill="#DBDBDC"/>
<path id="Vector_18" opacity="0.5" d="M177.975 130.647C167.221 128.653 157.787 125.334 151.229 121.594C147.949 119.723 145.413 117.76 143.789 115.828C142.162 113.891 141.498 112.047 141.808 110.374C142.118 108.701 143.399 107.217 145.612 105.992C147.821 104.77 150.892 103.847 154.625 103.276C162.087 102.136 172.084 102.418 182.839 104.412C193.594 106.406 203.028 109.726 209.585 113.465C212.866 115.337 215.401 117.299 217.025 119.232C218.652 121.168 219.317 123.013 219.006 124.686C218.696 126.359 217.415 127.843 215.202 129.067C212.993 130.289 209.922 131.212 206.189 131.783C198.727 132.924 188.73 132.641 177.975 130.647Z" fill="#FCF9F9" stroke="#646464"/>
</g>
</g>
<defs>
<linearGradient id="paint0_linear" x1="699.5" y1="5.49998" x2="71" y2="444.5" gradientUnits="userSpaceOnUse">
<stop offset="0.0887447" stop-color="#FAFF01"/>
<stop offset="1" stop-color="#FF8C01"/>
</linearGradient>
</defs>
</svg>
